<svg width="1920" height="1080" fill="none" xmlns="http://www.w3.org/2000/svg"><g clip-path="url(#clip0)"><path fill="url(#paint0_radial)" d="M0 0h1920v1080H0z"/><g filter="url(#filter0_f)"><path d="M363.613 903.215c-27.122 28.533-14.507 11.567-42.89 27.762l-40.998-8.483c-8.83 10.539-34.186 36.708-64.966 57.067-38.474 25.449-44.151 0-124.885 47.039-80.734 47.05 136.239-9.25 170.298-23.9 34.06-14.656 52.982 0 82.627-10.8 29.644-10.796 41.628 0 129.931 10.8 88.303 10.79 29.014-10.8 180.39 14.65 151.376 25.45 58.658-50.899 141.285-37.789 82.626 13.111 91.456 50.129 145.699 60.149 54.243 10.03 116.056 0 169.036 0 52.98 0 109.12-19.28 175.98-47.81 66.85-28.534 193.63 36.25 240.94 47.81 47.3 11.57 415.02-19.28 456.65-37.01 33.3-14.193 31.54-69.667 26.49-95.63-5.89-1.285-24.09-17.275-49.83-70.949-32.17-67.093 28.38-57.067 10.09-81.746-18.29-24.678 18.93-67.864-18.92-53.211-17.66 10.026-41 17.737-93.35 34.703-52.35 16.966-7.57-.771-30.27-39.33-22.71-38.559-30.91 4.627-85.15 22.364-54.25 17.738-58.66 30.848-76.32 9.255-17.66-21.594 20.81 0 42.26-26.992-34.69 15.424-63.71 3.856-75.69 17.737-11.98 13.882-48.57 9.255-67.49 9.255-18.92 0-34.69 37.788-54.87 69.406-20.19 31.618-37.85 12.339-71.91 12.339-34.06 0-15.13 0-60.55 10.797-45.41 10.796-13.24 5.398-5.04 42.415 8.2 37.017-14.51 5.398-63.71 0-49.19-5.398-3.78-6.941-23.33-17.737-19.56-10.797-24.6 0-49.83-35.475-25.23-35.474 6.31-26.22 25.23-30.847 18.92-4.628 23.33-28.534 47.93-36.246 24.6-7.712 9.46-14.652-3.78-23.907-13.25-9.254-34.69 16.966-54.24 41.644-19.56 24.678-46.68 32.39-88.31 49.356s-18.29 10.797-25.86 16.195-50.46 0-80.1 10.026c-29.65 10.025-17.03-10.026-17.66-26.221-.63-16.195 42.26-7.712 47.3-43.957 5.05-36.246-52.35-28.534-78.84-30.077-26.489-1.542-28.381 26.221-49.195 47.814s-75.058 52.441-110.379 67.093c-35.321 14.652-6.938 30.076-12.614 52.441-5.677 22.364-11.354 11.567-40.367 19.279-29.014 7.712-30.906 20.822-65.597 20.822-34.69 0-2.523-17.737 17.661-45.5 20.183-27.763 22.706 0 33.429-7.712 10.722-7.711 5.676-14.652 14.507-26.991 8.83-12.339 8.199-7.712 40.367-42.415 32.167-34.704-.631-10.797-23.338 5.398-22.706 16.195-31.536 24.678-61.181 24.678 5.046-32.39 22.076-14.652 29.645-40.873 7.568-26.22 8.83-13.881 43.52-26.22 34.691-12.339 25.23-43.958 23.968-55.525-1.261-11.568-14.507 6.169-32.167 22.364-17.661 16.195-35.321 43.186-51.72 59.381-16.4 16.195-19.553 26.221-42.26 35.475-22.706 9.254-33.429-.772-68.119 5.398-34.69 6.169-48.567 47.042-100.918 47.042-52.351 0-15.768-6.941-33.429-22.364-17.66-15.424-1.892-19.28-46.043-39.33-44.152-20.051-34.691 12.339-60.551 26.991-25.86 14.653-21.445 11.568-48.566 40.102z" fill="url(#paint1_linear)"/></g><g opacity=".28" filter="url(#filter1_f)"><path d="M390.613 689.215c-27.122 28.533-14.507 11.567-42.89 27.762l-40.998-8.483c-8.83 10.539-34.186 36.708-64.966 57.067-38.474 25.449-44.151 0-124.885 47.043-80.734 47.042 136.239-9.255 170.298-23.907 34.06-14.653 52.982 0 82.627-10.797 29.644-10.796 41.628 0 129.931 10.797 88.303 10.796 29.014-10.797 180.39 14.652 151.376 25.449 58.658-50.898 141.285-37.788 82.626 13.111 91.456 50.127 145.699 60.153 54.246 10.025 116.056 0 169.036 0 52.98 0 109.12-19.28 175.98-47.814 66.85-28.534 193.63 36.246 240.94 47.814 47.3 11.568 415.02-19.28 456.65-37.017 33.3-14.19 31.54-69.664 26.49-95.627-5.89-1.285-24.09-17.275-49.83-70.949-32.17-67.093 28.38-57.067 10.09-81.746-18.29-24.678 18.93-67.864-18.92-53.211-17.66 10.026-41 17.737-93.35 34.703-52.35 16.966-7.57-.771-30.27-39.33-22.71-38.559-30.91 4.627-85.15 22.364-54.25 17.738-58.66 30.848-76.32 9.255-17.66-21.594 20.81 0 42.26-26.992-34.69 15.424-63.71 3.856-75.69 17.737-11.98 13.882-48.57 9.255-67.49 9.255-18.92 0-34.69 37.788-54.87 69.406-20.19 31.618-37.85 12.339-71.91 12.339-34.06 0-15.13 0-60.55 10.797-45.41 10.796-13.24 5.398-5.04 42.415 8.2 37.017-14.51 5.398-63.71 0-49.19-5.398-3.78-6.941-23.33-17.737-19.56-10.797-24.6 0-49.83-35.475-25.23-35.474 6.31-26.22 25.23-30.847 18.92-4.628 23.33-28.534 47.93-36.246 24.6-7.712 9.46-14.652-3.78-23.907-13.25-9.254-34.69 16.966-54.24 41.644-19.56 24.678-46.68 32.39-88.31 49.356s-18.29 10.797-25.86 16.195-50.46 0-80.1 10.026c-29.65 10.025-17.03-10.026-17.66-26.221-.63-16.195 42.26-7.712 47.3-43.957 5.05-36.246-52.35-28.534-78.84-30.077-26.49-1.542-28.38 26.221-49.195 47.814-20.814 21.593-75.058 52.441-110.379 67.093-35.321 14.652-6.938 30.076-12.614 52.441-5.677 22.364-11.354 11.567-40.367 19.279-29.014 7.712-30.906 20.822-65.597 20.822-34.69 0-2.523-17.737 17.661-45.5 20.183-27.763 22.706 0 33.429-7.712 10.722-7.711 5.676-14.652 14.507-26.991 8.83-12.339 8.199-7.712 40.367-42.415 32.167-34.704-.631-10.797-23.338 5.398-22.706 16.195-31.536 24.678-61.181 24.678 5.046-32.39 22.076-14.652 29.645-40.873 7.568-26.22 8.83-13.881 43.52-26.22 34.691-12.339 25.23-43.958 23.968-55.525-1.261-11.568-14.507 6.169-32.167 22.364-17.661 16.195-35.321 43.186-51.72 59.381-16.4 16.195-19.553 26.221-42.26 35.475-22.706 9.254-33.429-.772-68.119 5.398-34.69 6.169-48.567 47.042-100.918 47.042-52.351 0-15.768-6.941-33.429-22.364-17.66-15.424-1.892-19.28-46.043-39.33-44.152-20.051-34.691 12.339-60.551 26.991-25.86 14.653-21.445 11.568-48.566 40.102z" fill="url(#paint2_linear)"/></g><g opacity=".28" filter="url(#filter2_f)"><path d="M-248.387 656.215c-27.122 28.533-14.507 11.567-42.89 27.762l-40.998-8.483c-8.83 10.539-34.186 36.708-64.966 57.067-38.474 25.449-44.151 0-124.885 47.043-80.734 47.042 136.239-9.255 170.298-23.907 34.06-14.653 52.982 0 82.627-10.797 29.644-10.796 41.628 0 129.931 10.797 88.303 10.796 29.014-10.797 180.39 14.652 151.376 25.449 58.658-50.898 141.285-37.788 82.626 13.111 91.456 50.127 145.699 60.153 54.243 10.025 116.055 0 169.037 0s109.117-19.28 175.975-47.814c66.858-28.534 193.636 36.246 240.941 47.814 47.305 11.568 415.023-19.28 456.653-37.017 33.3-14.19 31.54-69.664 26.49-95.627-5.89-1.285-24.09-17.275-49.83-70.949-32.17-67.093 28.38-57.067 10.09-81.746-18.29-24.678 18.93-67.864-18.92-53.211-17.66 10.026-41 17.737-93.35 34.703-52.35 16.966-7.57-.771-30.27-39.33-22.71-38.559-30.91 4.627-85.15 22.364-54.25 17.738-58.66 30.848-76.32 9.255-17.66-21.594 20.81 0 42.26-26.992-34.69 15.424-63.71 3.856-75.69 17.737-11.98 13.882-48.566 9.255-67.488 9.255-18.922 0-34.691 37.788-54.874 69.406-20.184 31.618-37.844 12.339-71.904 12.339-34.06 0-15.138 0-60.551 10.797-45.412 10.796-13.245 5.398-5.045 42.415 8.199 37.017-14.507 5.398-63.705 0-49.197-5.398-3.784-6.941-23.337-17.737-19.553-10.797-24.598 0-49.828-35.475-25.229-35.474 6.307-26.22 25.23-30.847 18.922-4.628 23.337-28.534 47.935-36.246 24.599-7.712 9.461-14.652-3.784-23.907-13.245-9.254-34.69 16.966-54.243 41.644-19.553 24.678-46.675 32.39-88.303 49.356-41.629 16.966-18.291 10.797-25.86 16.195-7.569 5.398-50.459 0-80.104 10.026-29.644 10.025-17.029-10.026-17.66-26.221-.631-16.195 42.259-7.712 47.305-43.957 5.046-36.246-52.351-28.534-78.842-30.077-26.491-1.542-28.383 26.221-49.197 47.814-20.814 21.593-75.058 52.441-110.379 67.093-35.321 14.652-6.938 30.076-12.614 52.441-5.677 22.364-11.354 11.567-40.367 19.279-29.014 7.712-30.906 20.822-65.597 20.822-34.69 0-2.523-17.737 17.661-45.5 20.183-27.763 22.706 0 33.429-7.712 10.722-7.711 5.676-14.652 14.507-26.991 8.83-12.339 8.199-7.712 40.367-42.415 32.167-34.704-.631-10.797-23.338 5.398-22.706 16.195-31.536 24.678-61.181 24.678 5.046-32.39 22.076-14.652 29.645-40.873 7.568-26.22 8.83-13.881 43.52-26.22 34.691-12.339 25.23-43.958 23.968-55.525-1.261-11.568-14.507 6.169-32.167 22.364-17.661 16.195-35.321 43.186-51.72 59.381-16.4 16.195-19.553 26.221-42.26 35.475-22.706 9.254-33.429-.772-68.119 5.398-34.69 6.169-48.567 47.042-100.917 47.042-52.352 0-15.769-6.941-33.43-22.364-17.66-15.424-1.892-19.28-46.043-39.33-44.152-20.051-34.691 12.339-60.551 26.991-25.86 14.653-21.445 11.568-48.566 40.102z" fill="url(#paint3_linear)"/></g><g filter="url(#filter3_f)"><path d="M-623.387 891.215c-27.122 28.533-14.507 11.567-42.89 27.762l-40.998-8.483c-8.83 10.539-34.186 36.708-64.966 57.067-38.474 25.449-44.151 0-124.885 47.039-80.734 47.05 136.239-9.25 170.298-23.903 34.06-14.653 52.982 0 82.627-10.797 29.644-10.796 41.628 0 129.931 10.797 88.303 10.793 29.014-10.797 180.39 14.653 151.376 25.45 58.658-50.899 141.285-37.789 82.626 13.111 91.456 50.129 145.7 60.149 54.242 10.03 116.054 0 169.036 0s109.117-19.28 175.975-47.81c66.858-28.534 193.636 36.25 240.941 47.81 47.305 11.57 415.023-19.28 456.652-37.013 33.301-14.19 31.541-69.664 26.491-95.627-5.89-1.285-24.094-17.275-49.828-70.949-32.168-67.093 28.378-57.067 10.091-81.746-18.291-24.678 18.927-67.864-18.922-53.211-17.66 10.026-40.997 17.737-93.348 34.703-52.351 16.966-7.569-.771-30.276-39.33-22.706-38.559-30.906 4.627-85.149 22.364-54.243 17.738-58.658 30.848-76.319 9.255-17.66-21.594 20.814 0 42.259-26.992-34.69 15.424-63.704 3.856-75.688 17.737-11.984 13.882-48.566 9.255-67.488 9.255-18.922 0-34.691 37.788-54.874 69.406-20.184 31.618-37.844 12.339-71.904 12.339-34.06 0-15.138 0-60.551 10.797-45.412 10.796-13.245 5.398-5.045 42.415 8.199 37.017-14.507 5.398-63.705 0-49.197-5.398-3.784-6.941-23.337-17.737-19.553-10.797-24.598 0-49.828-35.475-25.229-35.474 6.307-26.22 25.23-30.847 18.922-4.628 23.337-28.534 47.935-36.246 24.599-7.712 9.461-14.652-3.784-23.907-13.245-9.254-34.69 16.966-54.243 41.644-19.553 24.678-46.675 32.39-88.303 49.356-41.629 16.966-18.291 10.797-25.86 16.195-7.569 5.398-50.459 0-80.104 10.026-29.644 10.025-17.03-10.026-17.66-26.221-.63-16.195 42.26-7.712 47.305-43.957 5.046-36.246-52.351-28.534-78.842-30.077-26.49-1.542-28.383 26.221-49.197 47.814-20.814 21.593-75.058 52.441-110.379 67.093-35.321 14.652-6.938 30.076-12.614 52.441-5.677 22.364-11.354 11.567-40.367 19.279-29.014 7.712-30.906 20.822-65.597 20.822-34.69 0-2.523-17.737 17.661-45.5 20.183-27.763 22.706 0 33.429-7.712 10.722-7.711 5.676-14.652 14.507-26.991 8.83-12.339 8.199-7.712 40.367-42.415 32.167-34.704-.631-10.797-23.338 5.398-22.706 16.195-31.536 24.678-61.181 24.678 5.046-32.39 22.076-14.652 29.645-40.873 7.568-26.22 8.83-13.881 43.52-26.22 34.691-12.339 25.23-43.958 23.968-55.525-1.261-11.568-14.507 6.169-32.167 22.364-17.661 16.195-35.321 43.186-51.72 59.381-16.4 16.195-19.553 26.221-42.26 35.475-22.706 9.254-33.429-.772-68.119 5.398-34.69 6.169-48.567 47.042-100.918 47.042-52.351 0-15.768-6.941-33.429-22.364-17.66-15.424-1.892-19.28-46.043-39.33-44.152-20.051-34.691 12.339-60.551 26.991-25.86 14.653-21.445 11.568-48.566 40.102z" fill="url(#paint4_linear)"/></g><g opacity=".46"><g filter="url(#filter4_f)"><path d="M1390.61 528.841c-30.11-7.455-14.97 24.146-17.48 30.249 1.52 3.809 5.86 8.828 11.08-1.57 6.53-12.996 2 5.625 18.77 5.819 5.59 6.112 6.98 9.671 19.53 15.439 12.55 5.768 15.77-2.619 24.57-14.911 8.8-12.291 5.14-6.54 5.16-24.683.01-18.143-4.35-10.108-11.63-6.733-7.28 3.375-19.9 3.845-50-3.61z" fill="#E5EAE3"/></g><g filter="url(#filter5_f)"><path d="M1611.02 402.095c-30.09-7.485-14.82 23.686-17.3 29.679 1.54 3.755 5.9 8.715 11.06-1.49 6.45-12.756 2.02 5.545 18.77 5.818 5.6 6.042 7.01 9.552 19.57 15.29 12.56 5.737 15.73-2.5 24.46-14.551 8.72-12.05 5.1-6.41 5.02-24.262-.07-17.853-4.39-9.968-11.64-6.683-7.25 3.285-19.84 3.685-49.94-3.801z" fill="#E5EAE3"/></g><g filter="url(#filter6_f)"><path d="M1520.22 495.534c-45.42-12.221-42.87 17.702-48.42 21.558l-1.05 3.392c5.65 3.199 18.21 13.58 23.24 29.517 6.28 19.921 30.48-7.905 51.16-.255 20.67 7.649 7.91.593 39.79-3.779 31.88-4.373 14.08-9.269 29.13-9.564 15.04-.296 26.75 2.097 40.67-14.662 13.92-16.759 19.77-7.507 26.68-9.703 6.91-2.197 4.07-3.077 2.46-15.972-1.61-12.894-17.71-1.151-47.09-10.877-29.37-9.726-35.25 13.244-53.31 21.279-18.06 8.036-17.84 1.287-63.26-10.934z" fill="#E5EAE3"/></g></g><g opacity=".46" filter="url(#filter7_f)"><path d="M1735.93 135.519c-30.96 1.793-7.14 27.495-7.74 34.07 2.58 3.187 8.22 6.694 10.12-4.782 2.38-14.345 3.57 4.782 19.65 0 7.15 4.184 9.53 7.173 23.22 8.966 13.7 1.793 14.29-7.173 19.06-21.518 4.76-14.345 2.97-7.77-2.38-25.104-5.36-17.333-7.15-8.367-13.1-2.988-5.96 5.379-17.87 9.563-48.83 11.356z" fill="#E5EAE3"/></g><g opacity=".46" filter="url(#filter8_f)"><path d="M-1.815-1.669C-27.37-17.2-24.323 18.495-28.825 23.932c.082 4.221 2.383 10.41 10.927 1.399 10.68-11.264-.111 6.167 15.52 10.855C.699 43.802.747 47.739 10.464 56.876c9.717 9.139 15.686 1.605 28.248-8.343 12.56-9.949 7.117-5.17 13.516-23.33 6.4-18.162-.51-11.286-8.513-9.858-8.003 1.428-19.975-1.482-45.53-17.014z" fill="#E5EAE3"/></g><g filter="url(#filter9_f)"><path d="M1908.93-50.806c-30.96 1.762-7.14 27.012-7.74 33.472 2.58 3.132 8.22 6.577 10.12-4.698 2.38-14.093 3.57 4.698 19.65 0 7.15 4.11 9.53 7.047 23.22 8.809 13.7 1.761 14.29-7.047 19.06-21.14 4.76-14.093 2.97-7.634-2.38-24.664-5.36-17.029-7.15-8.22-13.1-2.936-5.96 5.285-17.87 9.396-48.83 11.157z" fill="#E5EAE3"/></g><g filter="url(#filter10_f)"><path d="M247.496-68.491c-25.519-15.584-21.954 19.373-26.325 24.621.147 4.13 2.518 10.218 10.831 1.536 10.392-10.851-.014 6.03 15.52 10.855 3.161 7.496 3.27 11.347 13.023 20.433 9.753 9.087 15.542 1.811 27.814-7.725 12.273-9.536 6.962-4.946 13.012-22.609 6.051-17.662-.679-11.045-8.573-9.771-7.894 1.273-19.783-1.757-45.302-17.34z" fill="#E5EAE3"/></g><g opacity=".46" filter="url(#filter11_f)"><path d="M1849.86 65.33c-47 1.776-35.7 29.6-39.86 34.927v3.552c6.35 1.382 21.42 7.578 30.94 21.312 11.9 17.167 26.77-16.576 48.79-15.392 22.01 1.184 7.73-1.776 36.89-15.391 29.15-13.616 10.71-13.024 24.98-17.76 14.28-4.736 26.18-5.92 34.51-26.047 8.33-20.128 16.66-13.024 22.61-17.168 5.95-4.144 2.98-4.144-2.38-15.984-5.35-11.84-17.25 4.144-48.19 3.552-30.94-.592-29.75 23.088-44.62 36.111-14.88 13.024-16.66 6.512-63.67 8.288z" fill="#E5EAE3"/></g><g opacity=".46" filter="url(#filter12_f)"><path d="M130.886.404c-38.07-24.33-46.075 6.056-52.59 8.39L76.14 11.88c4.156 4.693 12.254 18.37 11.404 35.538-1.064 21.46 31.14.343 47.746 13.489 16.605 13.145 7.166 2.715 38.38 6.938 31.215 4.222 16.34-5.416 30.455-1.67 14.114 3.748 24.198 9.27 42.98-3.625 18.782-12.896 21.022-2.141 28.222-2.465 7.199-.324 4.858-1.961 7.836-15.191 2.978-13.23-16.096-5.9-40.086-23.444-23.989-17.544-37.436 3.676-57.054 6.8-19.617 3.122-17.066-3.515-55.136-27.846z" fill="#E5EAE3"/></g><g filter="url(#filter13_f)"><path d="M-51.227 479.064c-36.71-20.941-28.578 26.11-34.14 33.18.581 5.559 4.418 13.751 15.116 2.053 13.372-14.623.532 8.116 22.452 14.589 5.057 10.086 5.56 15.269 19.877 27.486 14.316 12.218 21.654 2.416 37.747-10.438 16.094-12.854 9.172-6.668 15.918-30.453 6.747-23.784-1.95-14.866-12.749-13.141-10.797 1.726-27.51-2.336-64.22-23.276z" fill="#E5EAE3"/></g><g opacity=".43" filter="url(#filter14_f)"><path d="M131.07 483.458c-55.025-32.87-62.767 7.315-71.481 10.31l-2.638 4.059c6.226 6.29 18.848 24.562 19.528 47.323.85 28.451 42.9.94 67.174 18.638 24.275 17.698 10.157 3.713 53.578 9.802 43.421 6.089 21.907-6.929 41.739-1.738 19.832 5.191 34.308 12.674 58.77-4.14 24.463-16.813 28.706-2.511 38.581-2.828 9.875-.318 6.476-2.526 9.148-20.031 2.672-17.504-22.792-8.076-57.703-31.724-34.912-23.648-51.134 4.292-77.8 8.129-26.666 3.836-23.87-4.929-78.896-37.8z" fill="#E5EAE3"/></g><g style="mix-blend-mode:overlay" filter="url(#filter15_f)"><circle cx="955" cy="380" r="87" fill="#FDD3AC"/></g><path d="M1278.05 882.336c-5.58 20.181-220.27 75.288-326.928 100.318l-12.823.966c55.032-4.144 186.581 1.09 272.541 55.18 85.96 54.08 410.8-21.11 562.47-65.468-29.3-7.356-97.58-22.294-136.34-23.2-21.86 26.508-214.23-22.913-307.68-50.937-10.49-3.725-35.43-12.313-51.24-16.859z" fill="url(#paint5_linear)"/><path d="M1235.82 910.218c31.03-7.436 41.08-21.686 42.23-27.882-27.75 27.588-232.75 77.29-319.894 97.399 147.784-17.504 238.874-60.221 277.664-69.517z" fill="#D9937A"/><g filter="url(#filter16_f)"><path d="M189.4 840.621c14.863-21.581 56.731-61.26 105.303-47.333 60.715 17.41 42.69 102.281 118.584 85.96 75.894-16.321 118.584-27.202 150.839-19.586 32.254 7.617 58.817 54.949 113.84 58.757 55.023 3.809 81.586 7.617 131.866 0 50.279-7.616 36.049-4.896 72.099-8.16 36.049-3.265 4.743 23.394 36.049 15.777 31.306-7.617 153.68-33.187 167.91-28.29 14.24 4.896 140.41 38.627 183.1 38.627s38.89 7.073 101.51-5.44c62.61-12.514 102.45 21.761 123.32 13.601 20.87-8.161 22.77-21.762 78.74-34.275 55.98-12.513 66.41-15.234 89.18-32.643 22.77-17.41 10.43-27.747 43.64-15.778 33.2 11.969 38.89-29.922 67.35-23.938 28.46 5.985 39.85 23.938 75.9 23.938 36.05 0 79.69 50.597 111.94 0 32.25-50.596 37-85.415 70.2-83.783 40.23 10.881 50.91 130.028 51.23 188.241-4.43 1.632-20.87 3.917-51.23 0-37.95-4.897-148.94 13.601-241.91 10.337-92.97-3.265-131.86.544-227.68-4.897-95.82-5.44-954.364 16.322-1036.899 4.897-82.534-11.425-203.015-32.099-290.293-32.099-55.764 0-74.898 3.701-79.054 6.67l-.634 2.035c-.51-.585-.414-1.286.634-2.035L189.4 840.621z" fill="url(#paint6_linear)"/></g><g filter="url(#filter17_f)"><path d="M363.613 903.215c-27.122 28.533-14.507 11.567-42.89 27.762l-40.998-8.483c-8.83 10.539-34.186 36.708-64.966 57.067-38.474 25.449-44.151 0-124.885 47.039-80.734 47.05 136.239-9.25 170.298-23.9 34.06-14.656 52.982 0 82.627-10.8 29.644-10.796 41.628 0 129.931 10.8 88.303 10.79 29.014-10.8 180.39 14.65 151.376 25.45 58.658-50.899 141.285-37.789 82.626 13.111 91.456 50.129 145.699 60.149 54.243 10.03 116.056 0 169.036 0 52.98 0 109.12-19.28 175.98-47.81 66.85-28.534 193.63 36.25 240.94 47.81 47.3 11.57 415.02-19.28 456.65-37.01 33.3-14.193 31.54-69.667 26.49-95.63-5.89-1.285-24.09-17.275-49.83-70.949-32.17-67.093 28.38-57.067 10.09-81.746-18.29-24.678 18.93-67.864-18.92-53.211-17.66 10.026-41 17.737-93.35 34.703-52.35 16.966-7.57-.771-30.27-39.33-22.71-38.559-30.91 4.627-85.15 22.364-54.25 17.738-58.66 30.848-76.32 9.255-17.66-21.594 20.81 0 42.26-26.992-34.69 15.424-63.71 3.856-75.69 17.737-11.98 13.882-48.57 9.255-67.49 9.255-18.92 0-34.69 37.788-54.87 69.406-20.19 31.618-37.85 12.339-71.91 12.339-34.06 0-15.13 0-60.55 10.797-45.41 10.796-13.24 5.398-5.04 42.415 8.2 37.017-14.51 5.398-63.71 0-49.19-5.398-3.78-6.941-23.33-17.737-19.56-10.797-24.6 0-49.83-35.475-25.23-35.474 6.31-26.22 25.23-30.847 18.92-4.628 23.33-28.534 47.93-36.246 24.6-7.712 9.46-14.652-3.78-23.907-13.25-9.254-34.69 16.966-54.24 41.644-19.56 24.678-46.68 32.39-88.31 49.356s-18.29 10.797-25.86 16.195-50.46 0-80.1 10.026c-29.65 10.025-17.03-10.026-17.66-26.221-.63-16.195 42.26-7.712 47.3-43.957 5.05-36.246-52.35-28.534-78.84-30.077-26.489-1.542-28.381 26.221-49.195 47.814s-75.058 52.441-110.379 67.093c-35.321 14.652-6.938 30.076-12.614 52.441-5.677 22.364-11.354 11.567-40.367 19.279-29.014 7.712-30.906 20.822-65.597 20.822-34.69 0-2.523-17.737 17.661-45.5 20.183-27.763 22.706 0 33.429-7.712 10.722-7.711 5.676-14.652 14.507-26.991 8.83-12.339 8.199-7.712 40.367-42.415 32.167-34.704-.631-10.797-23.338 5.398-22.706 16.195-31.536 24.678-61.181 24.678 5.046-32.39 22.076-14.652 29.645-40.873 7.568-26.22 8.83-13.881 43.52-26.22 34.691-12.339 25.23-43.958 23.968-55.525-1.261-11.568-14.507 6.169-32.167 22.364-17.661 16.195-35.321 43.186-51.72 59.381-16.4 16.195-19.553 26.221-42.26 35.475-22.706 9.254-33.429-.772-68.119 5.398-34.69 6.169-48.567 47.042-100.918 47.042-52.351 0-15.768-6.941-33.429-22.364-17.66-15.424-1.892-19.28-46.043-39.33-44.152-20.051-34.691 12.339-60.551 26.991-25.86 14.653-21.445 11.568-48.566 40.102z" fill="url(#paint7_linear)"/></g><g filter="url(#filter18_f)"><path d="M-623.387 891.215c-27.122 28.533-14.507 11.567-42.89 27.762l-40.998-8.483c-8.83 10.539-34.186 36.708-64.966 57.067-38.474 25.449-44.151 0-124.885 47.039-80.734 47.05 136.239-9.25 170.298-23.903 34.06-14.653 52.982 0 82.627-10.797 29.644-10.796 41.628 0 129.931 10.797 88.303 10.793 29.014-10.797 180.39 14.653 151.376 25.45 58.658-50.899 141.285-37.789 82.626 13.111 91.456 50.129 145.7 60.149 54.242 10.03 116.054 0 169.036 0s109.117-19.28 175.975-47.81c66.858-28.534 193.636 36.25 240.941 47.81 47.305 11.57 415.023-19.28 456.652-37.013 33.301-14.19 31.541-69.664 26.491-95.627-5.89-1.285-24.094-17.275-49.828-70.949-32.168-67.093 28.378-57.067 10.091-81.746-18.291-24.678 18.927-67.864-18.922-53.211-17.66 10.026-40.997 17.737-93.348 34.703-52.351 16.966-7.569-.771-30.276-39.33-22.706-38.559-30.906 4.627-85.149 22.364-54.243 17.738-58.658 30.848-76.319 9.255-17.66-21.594 20.814 0 42.259-26.992-34.69 15.424-63.704 3.856-75.688 17.737-11.984 13.882-48.566 9.255-67.488 9.255-18.922 0-34.691 37.788-54.874 69.406-20.184 31.618-37.844 12.339-71.904 12.339-34.06 0-15.138 0-60.551 10.797-45.412 10.796-13.245 5.398-5.045 42.415 8.199 37.017-14.507 5.398-63.705 0-49.197-5.398-3.784-6.941-23.337-17.737-19.553-10.797-24.598 0-49.828-35.475-25.229-35.474 6.307-26.22 25.23-30.847 18.922-4.628 23.337-28.534 47.935-36.246 24.599-7.712 9.461-14.652-3.784-23.907-13.245-9.254-34.69 16.966-54.243 41.644-19.553 24.678-46.675 32.39-88.303 49.356-41.629 16.966-18.291 10.797-25.86 16.195-7.569 5.398-50.459 0-80.104 10.026-29.644 10.025-17.03-10.026-17.66-26.221-.63-16.195 42.26-7.712 47.305-43.957 5.046-36.246-52.351-28.534-78.842-30.077-26.49-1.542-28.383 26.221-49.197 47.814-20.814 21.593-75.058 52.441-110.379 67.093-35.321 14.652-6.938 30.076-12.614 52.441-5.677 22.364-11.354 11.567-40.367 19.279-29.014 7.712-30.906 20.822-65.597 20.822-34.69 0-2.523-17.737 17.661-45.5 20.183-27.763 22.706 0 33.429-7.712 10.722-7.711 5.676-14.652 14.507-26.991 8.83-12.339 8.199-7.712 40.367-42.415 32.167-34.704-.631-10.797-23.338 5.398-22.706 16.195-31.536 24.678-61.181 24.678 5.046-32.39 22.076-14.652 29.645-40.873 7.568-26.22 8.83-13.881 43.52-26.22 34.691-12.339 25.23-43.958 23.968-55.525-1.261-11.568-14.507 6.169-32.167 22.364-17.661 16.195-35.321 43.186-51.72 59.381-16.4 16.195-19.553 26.221-42.26 35.475-22.706 9.254-33.429-.772-68.119 5.398-34.69 6.169-48.567 47.042-100.918 47.042-52.351 0-15.768-6.941-33.429-22.364-17.66-15.424-1.892-19.28-46.043-39.33-44.152-20.051-34.691 12.339-60.551 26.991-25.86 14.653-21.445 11.568-48.566 40.102z" fill="url(#paint8_linear)"/></g><g filter="url(#filter19_f)"><path d="M649.04 456.229c-13.258 21.566-145.705 203.904-210.271 292.377-18.99 39.398-57.799 124.623-61.113 150.336-4.144 32.14-43.505 81.906-78.723 96.422-35.217 14.516 41.433 101.606 95.296 105.756 53.862 4.14 183.34-10.37 306.602-30.07 123.263-19.7 505.479 54.95 527.229 54.95 17.41 0 295.21-7.6 431.94-11.4-39.02-24.54-114.98-73.62-106.69-73.62 10.36 0 10.36-16.59 14.5-26.95 4.15-10.37-34.18-32.145-38.32-78.801-4.15-46.655-41.44-49.766-64.22-79.833-18.23-24.054-15.89-48.038-12.43-57.024-7.25-16.588-21.76-52.876-21.76-65.318 0-15.552-49.72-82.944-55.93-109.9-4.97-21.566-51.1-53.223-73.54-66.355l-83.9-76.723-39.37-38.362c-5.52-11.75-19.68-40.227-32.11-60.134-15.53-24.883-26.93-30.067-58-45.619-31.08-15.552-7.25-19.699-18.65-49.766-11.39-30.067-41.43-51.84-46.61-73.613-5.18-21.772-30.038-36.288-41.432-36.288-11.394 0-34.182-18.662-80.793 0-46.612 18.663-79.759 49.767-98.403 72.576-18.645 22.81-22.788 32.141-36.254 50.803-13.466 18.662-37.29 66.355-65.257 106.79-27.967 40.435-35.218 22.81-51.791 49.766z" fill="url(#paint9_linear)"/></g><g opacity=".41" filter="url(#filter20_f)"><path d="M1173.06 762.554c-8.87 14.407-97.42 136.219-140.59 195.325-12.7 26.32-38.646 83.251-40.862 100.431-2.77 21.47-29.088 54.72-52.635 64.42-23.547 9.69 27.703 67.88 63.717 70.65 36.01 2.77 122.58-6.93 205-20.09 82.41-13.16 337.97 36.71 352.51 36.71 11.64 0 197.38-5.08 288.8-7.62-26.09-16.39-76.87-49.18-71.33-49.18 6.92 0 6.92-11.08 9.69-18.01 2.77-6.92-22.85-21.47-25.62-52.64-2.77-31.16-27.71-33.24-42.94-53.33-12.19-16.07-10.62-32.092-8.31-38.094-4.85-11.083-14.55-35.325-14.55-43.637 0-10.389-33.24-55.411-37.39-73.42-3.33-14.407-34.17-35.555-49.18-44.329l-56.09-51.255-26.32-25.628c-3.7-7.85-13.16-26.874-21.47-40.173-10.39-16.623-18.01-20.087-38.78-30.476-20.78-10.39-4.85-13.16-12.47-33.247-7.62-20.087-27.7-34.632-31.17-49.177-3.46-14.546-20.08-24.243-27.7-24.243-7.62 0-22.85-12.467-54.02 0-31.16 12.468-53.33 33.247-65.79 48.485-12.47 15.238-15.24 21.472-24.24 33.939-9 12.468-24.93 44.329-43.63 71.342-18.7 27.013-23.55 15.238-34.63 33.247z" fill="url(#paint10_linear)"/></g><g opacity=".41" filter="url(#filter21_f)"><path d="M-10.94 823.554c-8.866 14.407-97.421 136.219-140.591 195.326-12.697 26.32-38.645 83.25-40.861 100.43-2.77 21.47-29.088 54.72-52.635 64.42-23.547 9.69 27.703 67.88 63.716 70.65 36.013 2.77 122.583-6.93 204.998-20.09 82.415-13.16 337.971 36.71 352.514 36.71 11.636 0 197.381-5.08 288.799-7.62-26.087-16.39-76.874-49.18-71.334-49.18 6.926 0 6.926-11.08 9.696-18.01 2.77-6.92-22.855-21.47-25.625-52.64-2.77-31.16-27.702-33.24-42.939-53.33-12.189-16.07-10.619-32.09-8.31-38.09-4.848-11.09-14.544-35.33-14.544-43.64 0-10.39-33.243-55.412-37.399-73.421-3.324-14.407-34.166-35.555-49.172-44.329l-56.097-51.255-26.318-25.628c-3.693-7.85-13.158-26.874-21.469-40.173-10.388-16.623-18.007-20.087-38.783-30.476-20.777-10.39-4.848-13.16-12.467-33.247-7.618-20.087-27.702-34.632-31.165-49.177-3.463-14.546-20.084-24.243-27.702-24.243-7.619 0-22.855-12.467-54.02 0-31.166 12.468-53.328 33.247-65.794 48.485-12.466 15.238-15.236 21.472-24.24 33.939-9.003 12.468-24.932 44.329-43.63 71.342C4.987 817.32.14 805.545-10.942 823.554z" fill="url(#paint11_linear)"/></g><g style="mix-blend-mode:overlay" opacity=".69" filter="url(#filter22_f)"><circle cx="940.5" cy="142.5" r="343.5" fill="#FDD3AC"/></g><g style="mix-blend-mode:overlay" opacity=".69" filter="url(#filter23_f)"><circle cx="949.5" cy="167.5" r="72.5" fill="#fff"/></g><g opacity=".23" filter="url(#filter24_f)"><path d="M220.065 664.121c-25.024 26.339-13.385 10.678-39.573 25.627l-37.828-7.83c-8.148 9.728-31.543 33.884-59.943 52.677-35.5 23.492-40.737 0-115.23 43.424-74.491 43.423 125.706-8.543 157.132-22.068 31.426-13.525 48.885 0 76.238-9.966 27.352-9.966 38.409 0 119.885 9.966 81.475 9.966 26.77-9.966 166.442 13.525 139.672 23.492 54.123-46.983 130.361-34.881 76.237 12.102 84.385 46.271 134.434 55.525 50.049 9.255 107.082 0 155.967 0 48.885 0 100.68-17.796 162.37-44.135s178.66 33.457 222.31 44.135c43.65 10.678 382.93-17.796 421.34-34.169 30.73-13.098 29.1-64.305 24.45-88.271-5.44-1.186-22.23-15.946-45.98-65.491-29.68-61.932 26.19-52.678 9.31-75.458-16.87-22.78 17.46-62.644-17.46-49.118-16.29 9.254-37.82 16.373-86.13 32.034-48.3 15.66-6.98-.712-27.93-36.305-20.95-35.593-28.52 4.271-78.57 20.644-50.05 16.373-54.12 28.474-70.42 8.542-16.29-19.932 19.21 0 39-24.915-32.01 14.237-58.78 3.559-69.84 16.373-11.06 12.814-44.81 8.542-62.27 8.542s-32.01 34.881-50.63 64.068c-18.62 29.186-34.92 11.39-66.35 11.39-31.42 0-13.96 0-55.86 9.966-41.91 9.966-12.23 4.983-4.66 39.152 7.57 34.17-13.39 4.983-58.78 0-45.39-4.982-3.49-6.407-21.53-16.373-18.04-9.966-22.7 0-45.98-32.745-23.28-32.746 5.82-24.204 23.28-28.475 17.46-4.271 21.53-26.339 44.23-33.458 22.7-7.118 8.73-13.525-3.49-22.067s-32.01 15.661-50.05 38.44c-18.04 22.78-43.065 29.899-81.475 45.56-38.41 15.661-16.877 9.966-23.86 14.949-6.984 4.983-46.558 0-73.91 9.254-27.353 9.255-15.713-9.254-16.295-24.203-.582-14.95 38.991-7.119 43.647-40.577 4.656-33.457-48.303-26.338-72.746-27.762-24.442-1.424-26.188 24.203-45.393 44.135-19.205 19.932-69.254 48.407-101.844 61.932-32.59 13.526-6.402 27.763-11.64 48.407-5.237 20.644-10.475 10.678-37.245 17.797-26.771 7.118-28.517 19.22-60.525 19.22-32.008 0-2.328-16.373 16.295-42s20.951 0 30.844-7.119c9.894-7.118 5.238-13.525 13.386-24.915 8.147-11.389 7.565-7.118 37.245-39.152 29.681-32.034-.582-9.966-21.532 4.983-20.951 14.949-29.099 22.779-56.451 22.779 4.656-29.898 20.369-13.525 27.352-37.728 6.984-24.204 8.148-12.814 40.156-24.204 32.008-11.389 23.279-40.576 22.115-51.254-1.164-10.678-13.385 5.695-29.681 20.644-16.295 14.949-32.59 39.865-47.721 54.814-15.131 14.949-18.041 24.203-38.992 32.745-20.95 8.542-30.844-.712-62.852 4.983-32.008 5.695-44.811 43.424-93.115 43.424-48.303 0-14.549-6.407-30.844-20.644-16.295-14.237-1.746-17.796-42.483-36.305-40.738-18.508-32.009 11.39-55.869 24.915-23.861 13.526-19.787 10.678-44.812 37.017z" fill="url(#paint12_linear)"/></g></g><defs><filter id="filter0_f" x="38" y="647" width="2008" height="432" filterUnits="userSpaceOnUse" color-interpolation-filters="sRGB"><feFlood flood-opacity="0" result="BackgroundImageFix"/><feBlend in="SourceGraphic" in2="BackgroundImageFix" result="shape"/><feGaussianBlur stdDeviation="17" result="effect1_foregroundBlur"/></filter><filter id="filter1_f" x="65" y="433" width="2008" height="432" filterUnits="userSpaceOnUse" color-interpolation-filters="sRGB"><feFlood flood-opacity="0" result="BackgroundImageFix"/><feBlend in="SourceGraphic" in2="BackgroundImageFix" result="shape"/><feGaussianBlur stdDeviation="17" result="effect1_foregroundBlur"/></filter><filter id="filter2_f" x="-574" y="400" width="2008" height="432" filterUnits="userSpaceOnUse" color-interpolation-filters="sRGB"><feFlood flood-opacity="0" result="BackgroundImageFix"/><feBlend in="SourceGraphic" in2="BackgroundImageFix" result="shape"/><feGaussianBlur stdDeviation="17" result="effect1_foregroundBlur"/></filter><filter id="filter3_f" x="-949" y="635" width="2008" height="432" filterUnits="userSpaceOnUse" color-interpolation-filters="sRGB"><feFlood flood-opacity="0" result="BackgroundImageFix"/><feBlend in="SourceGraphic" in2="BackgroundImageFix" result="shape"/><feGaussianBlur stdDeviation="17" result="effect1_foregroundBlur"/></filter><filter id="filter4_f" x="1346" y="488.435" width="132.156" height="115.02" filterUnits="userSpaceOnUse" color-interpolation-filters="sRGB"><feFlood flood-opacity="0" result="BackgroundImageFix"/><feBlend in="SourceGraphic" in2="BackgroundImageFix" result="shape"/><feGaussianBlur stdDeviation="9" result="effect1_foregroundBlur"/></filter><filter id="filter5_f" x="1566.61" y="362" width="131.859" height="114.065" filterUnits="userSpaceOnUse" color-interpolation-filters="sRGB"><feFlood flood-opacity="0" result="BackgroundImageFix"/><feBlend in="SourceGraphic" in2="BackgroundImageFix" result="shape"/><feGaussianBlur stdDeviation="9" result="effect1_foregroundBlur"/></filter><filter id="filter6_f" x="1444.99" y="415.747" width="263.585" height="207.565" filterUnits="userSpaceOnUse" color-interpolation-filters="sRGB"><feFlood flood-opacity="0" result="BackgroundImageFix"/><feBlend in="SourceGraphic" in2="BackgroundImageFix" result="shape"/><feGaussianBlur stdDeviation="9" result="effect1_foregroundBlur"/></filter><filter id="filter7_f" x="1702" y="99" width="119" height="93" filterUnits="userSpaceOnUse" color-interpolation-filters="sRGB"><feFlood flood-opacity="0" result="BackgroundImageFix"/><feBlend in="SourceGraphic" in2="BackgroundImageFix" result="shape"/><feGaussianBlur stdDeviation="9" result="effect1_foregroundBlur"/></filter><filter id="filter8_f" x="-56" y="-44.71" width="136.518" height="131.838" filterUnits="userSpaceOnUse" color-interpolation-filters="sRGB"><feFlood flood-opacity="0" result="BackgroundImageFix"/><feBlend in="SourceGraphic" in2="BackgroundImageFix" result="shape"/><feGaussianBlur stdDeviation="9" result="effect1_foregroundBlur"/></filter><filter id="filter9_f" x="1875" y="-87" width="119" height="92" filterUnits="userSpaceOnUse" color-interpolation-filters="sRGB"><feFlood flood-opacity="0" result="BackgroundImageFix"/><feBlend in="SourceGraphic" in2="BackgroundImageFix" result="shape"/><feGaussianBlur stdDeviation="9" result="effect1_foregroundBlur"/></filter><filter id="filter10_f" x="194.085" y="-111" width="135.372" height="130.199" filterUnits="userSpaceOnUse" color-interpolation-filters="sRGB"><feFlood flood-opacity="0" result="BackgroundImageFix"/><feBlend in="SourceGraphic" in2="BackgroundImageFix" result="shape"/><feGaussianBlur stdDeviation="9" result="effect1_foregroundBlur"/></filter><filter id="filter11_f" x="1792" y="-5" width="238" height="153" filterUnits="userSpaceOnUse" color-interpolation-filters="sRGB"><feFlood flood-opacity="0" result="BackgroundImageFix"/><feBlend in="SourceGraphic" in2="BackgroundImageFix" result="shape"/><feGaussianBlur stdDeviation="9" result="effect1_foregroundBlur"/></filter><filter id="filter12_f" x="42.23" y="-84.986" width="266.044" height="248.803" filterUnits="userSpaceOnUse" color-interpolation-filters="sRGB"><feFlood flood-opacity="0" result="BackgroundImageFix"/><feBlend in="SourceGraphic" in2="BackgroundImageFix" result="shape"/><feGaussianBlur stdDeviation="9" result="effect1_foregroundBlur"/></filter><filter id="filter13_f" x="-103.367" y="455.735" width="149.484" height="124.224" filterUnits="userSpaceOnUse" color-interpolation-filters="sRGB"><feFlood flood-opacity="0" result="BackgroundImageFix"/><feBlend in="SourceGraphic" in2="BackgroundImageFix" result="shape"/><feGaussianBlur stdDeviation="9" result="effect1_foregroundBlur"/></filter><filter id="filter14_f" x="19.505" y="376.067" width="353.68" height="319.669" filterUnits="userSpaceOnUse" color-interpolation-filters="sRGB"><feFlood flood-opacity="0" result="BackgroundImageFix"/><feBlend in="SourceGraphic" in2="BackgroundImageFix" result="shape"/><feGaussianBlur stdDeviation="9" result="effect1_foregroundBlur"/></filter><filter id="filter15_f" x="794" y="219" width="322" height="322" filterUnits="userSpaceOnUse" color-interpolation-filters="sRGB"><feFlood flood-opacity="0" result="BackgroundImageFix"/><feBlend in="SourceGraphic" in2="BackgroundImageFix" result="shape"/><feGaussianBlur stdDeviation="37" result="effect1_foregroundBlur"/></filter><filter id="filter16_f" x="120" y="744" width="1996" height="270" filterUnits="userSpaceOnUse" color-interpolation-filters="sRGB"><feFlood flood-opacity="0" result="BackgroundImageFix"/><feBlend in="SourceGraphic" in2="BackgroundImageFix" result="shape"/><feGaussianBlur stdDeviation="17" result="effect1_foregroundBlur"/></filter><filter id="filter17_f" x="38" y="647" width="2008" height="432" filterUnits="userSpaceOnUse" color-interpolation-filters="sRGB"><feFlood flood-opacity="0" result="BackgroundImageFix"/><feBlend in="SourceGraphic" in2="BackgroundImageFix" result="shape"/><feGaussianBlur stdDeviation="17" result="effect1_foregroundBlur"/></filter><filter id="filter18_f" x="-949" y="635" width="2008" height="432" filterUnits="userSpaceOnUse" color-interpolation-filters="sRGB"><feFlood flood-opacity="0" result="BackgroundImageFix"/><feBlend in="SourceGraphic" in2="BackgroundImageFix" result="shape"/><feGaussianBlur stdDeviation="17" result="effect1_foregroundBlur"/></filter><filter id="filter19_f" x="285" y="163" width="1380" height="968" filterUnits="userSpaceOnUse" color-interpolation-filters="sRGB"><feFlood flood-opacity="0" result="BackgroundImageFix"/><feBlend in="SourceGraphic" in2="BackgroundImageFix" result="shape"/><feGaussianBlur stdDeviation="2.5" result="effect1_foregroundBlur"/></filter><filter id="filter20_f" x="928" y="565" width="926" height="650" filterUnits="userSpaceOnUse" color-interpolation-filters="sRGB"><feFlood flood-opacity="0" result="BackgroundImageFix"/><feBlend in="SourceGraphic" in2="BackgroundImageFix" result="shape"/><feGaussianBlur stdDeviation="2.5" result="effect1_foregroundBlur"/></filter><filter id="filter21_f" x="-256" y="626" width="926" height="650" filterUnits="userSpaceOnUse" color-interpolation-filters="sRGB"><feFlood flood-opacity="0" result="BackgroundImageFix"/><feBlend in="SourceGraphic" in2="BackgroundImageFix" result="shape"/><feGaussianBlur stdDeviation="2.5" result="effect1_foregroundBlur"/></filter><filter id="filter22_f" x="395" y="-403" width="1091" height="1091" filterUnits="userSpaceOnUse" color-interpolation-filters="sRGB"><feFlood flood-opacity="0" result="BackgroundImageFix"/><feBlend in="SourceGraphic" in2="BackgroundImageFix" result="shape"/><feGaussianBlur stdDeviation="101" result="effect1_foregroundBlur"/></filter><filter id="filter23_f" x="755" y="-27" width="389" height="389" filterUnits="userSpaceOnUse" color-interpolation-filters="sRGB"><feFlood flood-opacity="0" result="BackgroundImageFix"/><feBlend in="SourceGraphic" in2="BackgroundImageFix" result="shape"/><feGaussianBlur stdDeviation="61" result="effect1_foregroundBlur"/></filter><filter id="filter24_f" x="-83" y="425" width="1858" height="404" filterUnits="userSpaceOnUse" color-interpolation-filters="sRGB"><feFlood flood-opacity="0" result="BackgroundImageFix"/><feBlend in="SourceGraphic" in2="BackgroundImageFix" result="shape"/><feGaussianBlur stdDeviation="17" result="effect1_foregroundBlur"/></filter><linearGradient id="paint1_linear" x1="1042" y1="681" x2="1042" y2="1045" gradientUnits="userSpaceOnUse"><stop stop-color="#FFFCE1"/><stop offset="1" stop-color="#FCDAC7"/></linearGradient><linearGradient id="paint2_linear" x1="1069" y1="467" x2="1069" y2="831" gradientUnits="userSpaceOnUse"><stop stop-color="#FFFCE1"/><stop offset="1" stop-color="#FCDAC7"/></linearGradient><linearGradient id="paint3_linear" x1="430" y1="434" x2="430" y2="798" gradientUnits="userSpaceOnUse"><stop stop-color="#FFFCE1"/><stop offset="1" stop-color="#FCDAC7"/></linearGradient><linearGradient id="paint4_linear" x1="55" y1="669" x2="55" y2="1033" gradientUnits="userSpaceOnUse"><stop stop-color="#FFFCE1"/><stop offset="1" stop-color="#FCDAC7"/></linearGradient><linearGradient id="paint5_linear" x1="1348.17" y1="877.055" x2="1361.62" y2="1055.69" gradientUnits="userSpaceOnUse"><stop stop-color="#C88E78"/><stop offset=".49" stop-color="#B9725C"/><stop offset="1" stop-color="#7F443E"/></linearGradient><linearGradient id="paint6_linear" x1="1118" y1="778" x2="1118" y2="980" gradientUnits="userSpaceOnUse"><stop stop-color="#F9EEDE"/><stop offset="1" stop-color="#FFE8C7"/></linearGradient><linearGradient id="paint7_linear" x1="1042" y1="681" x2="1042" y2="1045" gradientUnits="userSpaceOnUse"><stop stop-color="#FFFCE1"/><stop offset="1" stop-color="#FCDAC7"/></linearGradient><linearGradient id="paint8_linear" x1="55" y1="669" x2="55" y2="1033" gradientUnits="userSpaceOnUse"><stop stop-color="#FFFCE1"/><stop offset="1" stop-color="#FCDAC7"/></linearGradient><linearGradient id="paint9_linear" x1="975" y1="168" x2="975" y2="1126" gradientUnits="userSpaceOnUse"><stop stop-color="#F7BF9F"/><stop offset="1" stop-color="#F1BDA0"/></linearGradient><linearGradient id="paint10_linear" x1="1391" y1="570" x2="1391" y2="1210" gradientUnits="userSpaceOnUse"><stop stop-color="#F7BF9F"/><stop offset="1" stop-color="#F1BDA0"/></linearGradient><linearGradient id="paint11_linear" x1="207" y1="631" x2="207" y2="1271" gradientUnits="userSpaceOnUse"><stop stop-color="#F7BF9F"/><stop offset="1" stop-color="#F1BDA0"/></linearGradient><linearGradient id="paint12_linear" x1="846" y1="459" x2="846" y2="795" gradientUnits="userSpaceOnUse"><stop stop-color="#FFFCE1"/><stop offset="1" stop-color="#FCDAC7"/></linearGradient><radialGradient id="paint0_radial" cx="0" cy="0" r="1" gradientUnits="userSpaceOnUse" gradientTransform="rotate(87.144 335.206 642.295) scale(635.768 594.676)"><stop stop-color="#FCD4BF"/><stop offset=".37" stop-color="#F3CBB6"/><stop offset="1" stop-color="#F2CAB6"/></radialGradient><clipPath id="clip0"><path fill="#fff" d="M0 0h1920v1080H0z"/></clipPath></defs></svg>