<svg width="1090" height="166" fill="none" xmlns="http://www.w3.org/2000/svg"><g filter="url(#filter0_d)" fill="#fff"><path d="M1009.29 95l-1.9-70.558v-3.814h20.97l1.91 49.582h23.75V22.535l20.1 1.907v91.535l-28.6 32.419-19.07-19.07 27.57-34.325h-44.73z"/><path fill-rule="evenodd" clip-rule="evenodd" d="M513.565 41.605v76.28h22.88v-43.86l47.666 57.209 22.88-15.256-30.507-30.512 15.253-15.256V18.721l-80.079-1.907-13.346 13.35 15.253 11.441zm28.6-1.907l-1.907 19.07 20.973-1.907 7.627-3.814v-13.35h-26.693z"/><path d="M345.78 93.094v-76.28h20.973v59.117l5.72 17.163h20.973l1.907-74.373h20.973v98.234H362.94l-17.16-23.861zM15.93 43.512V13.001h55.292v87.721l-40.04 45.768-11.44-20.977L44.53 89.28V43.512h-28.6z"/><path fill-rule="evenodd" clip-rule="evenodd" d="M250.447 13h-80.079v106.791h80.079V13zm-22.879 26.697h-34.32v53.396h34.32V39.697z"/><path d="M704.23 121.699l-22.88 1.907V16.815h20.973L738.55 75.93V18.72h20.973v95.35l-5.72 9.535H738.55l-36.227-51.489 1.907 49.582zm213.545-82.001h-43.853l-1.907 17.163h40.04v22.884h-40.04v19.07h45.76v19.07h-70.546V16.815h70.546v22.883z"/></g><g filter="url(#filter1_f)" fill="#fff"><path d="M1008.36 95l-1.9-70.558v-3.814h20.97l1.91 49.582h23.75V22.535l20.1 1.907v91.535l-28.6 32.419-19.07-19.07 27.57-34.325h-44.73z"/><path fill-rule="evenodd" clip-rule="evenodd" d="M512.636 41.605v76.28h22.879v-43.86l47.667 57.209 22.879-15.256-30.506-30.512 15.253-15.256V18.721l-80.079-1.907-13.347 13.35 15.254 11.441zm28.599-1.907l-1.906 19.07 20.973-1.907 7.626-3.814v-13.35h-26.693z"/><path d="M344.851 93.094v-76.28h20.973v59.117l5.72 17.163h20.973l1.907-74.373h20.973v98.234H362.01l-17.159-23.861zM15 43.512V13.001h55.293v87.721l-40.04 45.768-11.44-20.977L43.6 89.28V43.512H15z"/><path fill-rule="evenodd" clip-rule="evenodd" d="M249.518 13h-80.08v106.791h80.08V13zm-22.88 26.697h-34.32v53.396h34.32V39.697z"/><path d="M703.301 121.699l-22.88 1.907V16.815h20.973L737.62 75.93V18.72h20.974v95.35l-5.72 9.535H737.62l-36.226-51.489 1.907 49.582zm213.545-82.001h-43.853l-1.907 17.163h40.04v22.884h-40.04v19.07h45.76v19.07H846.3V16.815h70.546v22.883z"/></g><defs><filter id="filter0_d" x=".929" y="0" width="1088.19" height="165.396" filterUnits="userSpaceOnUse" color-interpolation-filters="sRGB"><feFlood flood-opacity="0" result="BackgroundImageFix"/><feColorMatrix in="SourceAlpha" values="0 0 0 0 0 0 0 0 0 0 0 0 0 0 0 0 0 0 127 0"/><feOffset dy="2"/><feGaussianBlur stdDeviation="7.5"/><feColorMatrix values="0 0 0 0 0 0 0 0 0 0 0 0 0 0 0 0 0 0 0.09 0"/><feBlend in2="BackgroundImageFix" result="effect1_dropShadow"/><feBlend in="SourceGraphic" in2="effect1_dropShadow" result="shape"/></filter><filter id="filter1_f" x="8" y="6" width="1072.19" height="149.396" filterUnits="userSpaceOnUse" color-interpolation-filters="sRGB"><feFlood flood-opacity="0" result="BackgroundImageFix"/><feBlend in="SourceGraphic" in2="BackgroundImageFix" result="shape"/><feGaussianBlur stdDeviation="3.5" result="effect1_foregroundBlur"/></filter></defs></svg>