<svg width="1920" height="1080" fill="none" xmlns="http://www.w3.org/2000/svg"><g clip-path="url(#clip0)"><path d="M1278.05 882.336c-5.58 20.181-220.27 75.288-326.928 100.318l-12.823.966c55.032-4.144 186.581 1.09 272.541 55.18 85.96 54.08 410.8-21.11 562.47-65.468-29.3-7.356-97.58-22.294-136.34-23.2-21.86 26.508-214.23-22.913-307.68-50.937-10.49-3.725-35.43-12.313-51.24-16.859z" fill="url(#paint0_linear)"/><path d="M1235.82 910.218c31.03-7.437 41.08-21.687 42.23-27.882-27.75 27.588-232.75 77.29-319.894 97.398 147.784-17.503 238.874-60.22 277.664-69.516z" fill="#D9937A"/><g filter="url(#filter0_f)"><path d="M189.4 840.621c14.863-21.581 56.731-61.26 105.303-47.333 60.715 17.41 42.69 102.281 118.584 85.96 75.894-16.321 118.584-27.202 150.839-19.586 32.254 7.617 58.817 54.949 113.84 58.757 55.023 3.809 81.586 7.617 131.866 0 50.279-7.616 36.049-4.896 72.099-8.16 36.049-3.265 4.743 23.394 36.049 15.777 31.306-7.617 153.68-33.187 167.91-28.29 14.24 4.896 140.41 38.627 183.1 38.627s38.89 7.073 101.51-5.44c62.61-12.514 102.45 21.761 123.32 13.601 20.87-8.161 22.77-21.762 78.74-34.275 55.98-12.513 66.41-15.234 89.18-32.643 22.77-17.41 10.43-27.747 43.64-15.778 33.2 11.969 38.89-29.922 67.35-23.938 28.46 5.985 39.85 23.938 75.9 23.938 36.05 0 79.69 50.597 111.94 0 32.25-50.596 37-85.415 70.2-83.783 40.23 10.881 50.91 130.028 51.23 188.241-4.43 1.632-20.87 3.917-51.23 0-37.95-4.897-148.94 13.601-241.91 10.337-92.97-3.265-131.86.544-227.68-4.897-95.82-5.44-954.364 16.322-1036.899 4.897-82.534-11.425-203.015-32.099-290.293-32.099-55.764 0-74.898 3.701-79.054 6.67l-.634 2.035c-.51-.585-.414-1.286.634-2.035L189.4 840.621z" fill="url(#paint1_linear)"/></g><g filter="url(#filter1_f)"><path d="M254.362 876.581c14.007-23.29 53.465-66.112 99.24-51.082 57.22 18.789 40.233 110.383 111.757 92.769 71.524-17.615 111.757-29.357 142.155-21.137 30.397 8.22 55.431 59.301 107.286 63.411 51.855 4.11 76.889 8.22 124.274 0 47.384-8.22 33.974-5.284 67.948-8.807 33.974-3.523 4.47 25.247 33.974 17.027 29.504-8.22 144.834-35.816 158.244-30.532 13.41 5.285 132.32 41.687 172.56 41.687 40.23 0 36.65 7.633 95.66-5.871 59.01-13.504 96.56 23.486 116.23 14.679 19.67-8.808 21.45-23.486 74.2-36.99 52.75-13.505 62.59-16.44 84.04-35.229 21.46-18.788 9.84-29.944 41.13-17.027 31.29 12.917 36.66-32.293 63.48-25.834 26.82 6.458 37.55 25.834 71.52 25.834 33.98 0 75.1 54.604 105.5 0 30.4-54.604 34.87-92.181 66.16-90.42 37.91 11.743 47.98 140.327 48.28 203.151-4.17 1.76-19.67 4.23-48.28 0-35.76-5.28-140.37 14.68-227.98 11.16-87.62-3.53-124.28.58-214.58-5.29-90.3-5.87-899.414 17.62-977.197 5.29-77.782-12.33-191.327-34.645-273.58-34.645-52.553 0-70.586 3.994-74.503 7.198l-.598 2.196c-.48-.63-.39-1.388.598-2.196l32.482-119.342z" fill="url(#paint2_linear)"/></g><g filter="url(#filter2_f)"><path d="M-58.67 954.041c16.512-30.341 63.027-86.128 116.99-66.546 67.454 24.476 47.429 143.805 131.747 120.855 84.317-22.948 131.746-38.246 167.581-27.538 35.835 10.709 65.346 77.258 126.476 82.608 61.131 5.36 90.642 10.71 146.502 0 55.861-10.71 40.051-6.88 80.102-11.47 40.051-4.59 5.27 32.89 40.051 22.18 34.781-10.71 170.743-46.66 186.552-39.77 15.81 6.88 155.989 54.3 203.419 54.3 47.43 0 43.21 9.95 112.77-7.65 69.56-17.59 113.83 30.6 137.02 19.13 23.19-11.48 25.29-30.6 87.48-48.19 62.18-17.59 73.78-21.42 99.07-45.9 25.3-24.473 11.59-39.006 48.48-22.178s43.22-42.07 74.84-33.656c31.61 8.414 44.26 33.656 84.31 33.656 40.05 0 88.54 71.138 124.37 0 35.84-71.136 41.11-120.089 78-117.795 44.68 15.299 56.56 182.813 56.91 264.653-4.92 2.3-23.19 5.51-56.91 0-42.16-6.88-165.48 19.13-268.77 14.54-103.29-4.59-146.5.76-252.95-6.89-106.45-7.65-1060.294 22.95-1151.989 6.89-91.695-16.07-225.55-45.13-322.515-45.13-61.953 0-83.211 5.2-87.829 9.37l-.704 2.87c-.566-.83-.46-1.81.704-2.87l38.293-155.469z" fill="url(#paint3_linear)"/></g><path d="M902.698 851c-9.059 25.241-288.592 74.978-427.227 96.691H459c70.69 0 238.217 19.338 342.811 96.689 104.593 77.36 526.739 12.56 724.739-29.51-36.72-12.22-122.5-37.866-171.92-42.752-30.47 31.752-271.43-49.872-388.105-94.655-13.04-5.768-44.061-19.135-63.827-26.463z" fill="url(#paint4_linear)"/><path d="M846.078 882.552c40.355-6.514 54.561-23.749 56.62-31.552-38.09 32.57-304.721 76.335-417.961 93.638 190.45-8.143 310.897-53.944 361.341-62.086z" fill="#D9937A"/><path d="M536.088 895.243c-5.35 15.081-170.443 44.797-252.32 57.77h-9.728c41.749 0 140.691 11.554 202.464 57.767 61.773 46.22 311.093 7.5 428.032-17.631-21.685-7.298-72.352-22.622-101.536-25.541-17.997 18.973-160.309-29.797-229.216-56.554-7.701-3.446-26.022-11.432-37.696-15.811z" fill="url(#paint5_linear)"/><path d="M502.648 914.095c23.834-3.892 32.224-14.19 33.44-18.852-22.496 19.46-179.968 45.608-246.848 55.946 112.48-4.865 183.616-32.23 213.408-37.094z" fill="#D9937A"/><g opacity=".31" filter="url(#filter3_f)"><path d="M203.858 933.19c8.757-15.918 33.427-45.186 62.046-34.913 35.774 12.842 25.153 75.445 69.871 63.406 44.717-12.039 69.871-20.065 88.876-14.447 19.005 5.618 34.656 40.532 67.076 43.341 32.42 2.809 48.071 5.618 77.697 0 29.625-5.619 21.24-3.612 42.481-6.02 21.241-2.408 2.795 17.253 21.241 11.638 18.446-5.618 90.553-24.48 98.937-20.868 8.385 3.612 82.728 28.493 107.881 28.493 25.154 0 22.918 5.22 59.81-4.013 36.892-9.23 60.368 16.053 72.666 10.033 12.297-6.02 13.415-16.053 46.39-25.283 32.98-9.23 39.13-11.236 52.55-24.078 13.41-12.842 6.15-20.466 25.71-11.638 19.56 8.829 22.92-22.071 39.69-17.657 16.77 4.414 23.47 17.657 44.71 17.657 21.24 0 46.96 37.321 65.96 0 19.01-37.321 21.8-63.004 41.37-61.8 23.7 8.026 29.99 95.911 30.18 138.849-2.61 1.21-12.3 2.89-30.18 0-22.36-3.61-87.76 10.03-142.54 7.63-54.78-2.41-77.7.4-134.15-3.62-56.459-4.01-562.326 12.04-610.956 3.62-48.63-8.43-119.619-23.68-171.044-23.68-32.857 0-44.131 2.73-46.58 4.92l-.374 1.5c-.3-.43-.243-.95.374-1.5l20.308-81.57z" fill="url(#paint6_linear)" fill-opacity=".99"/></g><path d="M773.187 921c-8.17 22.766-260.292 67.625-385.331 87.21H373c63.758 0 214.857 17.44 309.194 87.21 94.336 69.77 475.086 11.32 653.666-26.62-33.11-11.02-110.49-34.15-155.06-38.56-27.48 28.64-244.814-44.981-350.045-85.372-11.761-5.202-39.74-17.258-57.568-23.868z" fill="url(#paint7_linear)"/><path d="M722.119 949.458c36.398-5.875 49.211-21.42 51.068-28.458-34.354 29.376-274.838 68.849-376.974 84.46 171.774-7.349 280.409-48.658 325.906-56.002z" fill="#D9937A"/><g opacity=".31" filter="url(#filter4_f)"><path d="M-17.551 977.11c10.684-19.337 40.782-54.891 75.7-42.411 43.646 15.6 30.689 91.651 85.247 77.021 54.558-14.622 85.248-24.372 108.435-17.547 23.187 6.827 42.283 49.237 81.838 52.647 39.555 3.41 58.65 6.83 94.795 0 36.145-6.82 25.915-4.39 51.83-7.31 25.916-2.93 3.41 20.96 25.916 14.14 22.505-6.83 110.481-29.74 120.71-25.35 10.23 4.38 100.933 34.61 131.623 34.61 30.689 0 27.961 6.34 72.972-4.88 45.01-11.21 73.653 19.5 88.657 12.19 15.004-7.31 16.368-19.5 56.604-30.71 40.234-11.21 47.744-13.65 64.104-29.25 16.37-15.6 7.5-24.862 31.37-14.137 23.87 10.727 27.96-26.812 48.42-21.45 20.46 5.362 28.65 21.45 54.56 21.45 25.92 0 57.29 45.337 80.48 0 23.18-45.337 26.59-76.536 50.46-75.074 28.92 9.75 36.6 116.511 36.83 168.671-3.18 1.46-15 3.51-36.83 0-27.28-4.39-107.07 12.19-173.9 9.26-66.84-2.92-94.8.49-163.677-4.38-68.88-4.88-686.073 14.62-745.405 4.38-59.333-10.23-145.944-28.76-208.686-28.76-40.088 0-53.843 3.32-56.83 5.98l-.457 1.82c-.366-.52-.297-1.15.456-1.82l24.778-99.09z" fill="url(#paint8_linear)" fill-opacity=".99"/></g><g opacity=".35" filter="url(#filter5_f)"><path d="M728.096 854.33c2.559-4.594 9.769-13.04 18.133-10.076 10.455 3.706 7.351 21.773 20.42 18.299 13.069-3.475 20.42-5.791 25.974-4.169 5.555 1.621 10.129 11.697 19.604 12.507 9.474.811 14.049 1.622 22.707 0 8.658-1.621 6.207-1.042 12.415-1.737 6.208-.695.817 4.98 6.208 3.359 5.391-1.622 26.464-7.065 28.915-6.023 2.45 1.043 24.177 8.223 31.528 8.223 7.351 0 6.698 1.506 17.48-1.158 10.781-2.664 17.643 4.632 21.237 2.895 3.593-1.737 3.92-4.632 13.558-7.296 9.639-2.664 11.436-3.243 15.356-6.949 3.921-3.706 1.797-5.906 7.515-3.358 5.718 2.548 6.698-6.37 11.594-5.096 4.91 1.274 6.87 5.096 13.07 5.096 6.21 0 13.73 10.77 19.28 0 5.55-10.771 6.37-18.183 12.09-17.835 6.93 2.316 8.77 27.679 8.82 40.071-.76.347-3.59.834-8.82 0-6.54-1.043-25.65 2.895-41.66 2.2-16.008-.695-22.705.116-39.205-1.042-16.499-1.158-164.34 3.474-178.553 1.042-14.212-2.432-34.959-6.833-49.988-6.833-9.603 0-12.898.788-13.613 1.42l-.109.433c-.088-.124-.072-.273.109-.433l5.935-23.54z" fill="url(#paint9_linear)" fill-opacity=".99"/></g><path d="M264.97 910.293c-10.862 30.263-346.007 89.897-512.222 115.927H-267c84.753 0 285.61 23.19 411.011 115.93 125.402 92.74 631.534 15.05 868.929-35.39-44.026-14.64-146.195-42.4-205.44-48.26-39.5 14-326.122-62.787-466.006-116.48-15.634-6.914-52.827-22.941-76.524-31.727z" fill="url(#paint10_linear)"/><path d="M197.085 948.122c48.383-7.81 65.416-28.473 67.885-37.829-45.668 39.049-365.344 91.517-501.113 112.267 228.34-9.76 372.749-64.676 433.228-74.438z" fill="#D9937A"/><path d="M1403.72 929.045c-6.29 29.294-272.59 114.995-404.952 154.195l-15.982 1.76c68.584-7.56 233.044-3.78 342.184 71.84 109.14 75.62 512.32-42.24 700.26-110.63-36.83-9.77-122.61-29.38-171.03-29.58-26.43 38.89-268.3-26.938-385.94-64.715-13.22-5.078-44.64-16.76-64.54-22.87z" fill="url(#paint11_linear)"/><path d="M1351.9 970.507c38.51-11.626 50.59-32.485 51.82-41.462-33.74 40.622-288.1 118.245-396.26 149.775 183.98-29.5 296.31-93.782 344.44-108.313z" fill="#D9937A"/><path d="M856.537 835.9c2.231 1.486 8.161.413 10.847-.309-.62.929-2.356 2.972-4.339 3.715-2.479.928-3.719-.929-6.508-3.406zm-7.029 1.858c-1.24.247-2.583-1.754-3.099-2.786-1.24 1.238.62 3.714 1.859 4.953 1.24 1.238 4.339-1.239 4.339-2.167 0-.929-1.55-.31-3.099 0z" fill="#6B1F18"/><path d="M892.895 856.332v-2.477c.673-.084 1.855-.236 2.134-.29.011-.013.023-.019.035-.019.046 0 .029.007-.035.019-.251.3.023 4.03-.275 4.624-.31.62-.93 2.167-1.239 3.406-.248.99-.724 2.683-.93 3.405-.103-1.135-.31-3.715-.31-4.953 0-1.548.62-2.477.62-3.715zm6.508 0v-2.477c.673-.084 1.855-.236 2.135-.29.01-.013.022-.019.034-.019.046 0 .029.007-.034.019-.252.3.022 4.03-.276 4.624-.31.62-.93 2.167-1.239 3.406-.248.99-.724 2.683-.93 3.405-.103-1.135-.31-3.715-.31-4.953 0-1.548.62-2.477.62-3.715z" fill="#4C0A00"/><path d="M895.275 823.518c-.744.248-.31 4.024 0 5.882-.62 3.405-3.657 8.482-10.847 1.547-1.239-.928-3.718-1.238-5.578-1.547-1.859-.31-2.169.619-2.789.619-.62 0-.93-.31-2.169-.31-1.24 0-4.029 2.477-4.959 3.715-.93 1.238-1.859 2.167-.62 1.548 1.24-.619 1.24-1.238 2.789-1.858 1.55-.619 1.86-.619 3.1-.309 1.239.309.929-1.548 3.099-2.477 2.169-.928 7.437 4.025 7.747 4.644 4.649 2.786 1.55-.619 7.128 3.096 6.198-1.734 7.541-6.708 7.438-8.978v-4.334c0-.619 0-.929-.31-1.548s-1.55.31-2.169.619c-.62.31-.93-.619-1.86-.309z" fill="url(#paint12_linear)"/><path d="M891.655 836.83c.496-.991.413-1.651.31-1.858 1.136-1.444 2.918-4.46 3.31-4.852.31-.309 3.634-.101 3.818.209.184.309.93.928.93 1.857 0 .929-.62 2.167-.31 2.477.31.309 1.859 4.024 1.859 6.191s.62 4.334 2.479 6.811c1.86 2.476 1.24 4.953 1.55 6.81.31 1.857-2.789.619-6.198.619h-5.269c-2.789 0-3.409.619-4.648.929-2.169-.31-5.578-4.644-7.128-5.572-1.24-.743.517-1.961 1.55-2.477 1.549-.619 1.239-2.167 2.169-2.476.93-.31.93-2.787 2.169-3.715 1.24-.929 2.789-3.715 3.409-4.953z" fill="url(#paint13_linear)"/><path fill-rule="evenodd" clip-rule="evenodd" d="M899.334 833.592l.003-.001.554 1.107c-.157.079-.382.132-.559.173l-.331.073c-.135.029-.281.061-.407.09-.565.128-1.258.304-1.973.578-1.44.554-2.882 1.473-3.563 3.105l-.097.232-.231.099a26.99 26.99 0 00-4.212 2.303c-.751.509-1.452 1.057-2.02 1.617-.573.565-.981 1.114-1.184 1.622v-.849c.292-.73.044-1.238.313-1.654.638-.63 1.405-1.225 2.195-1.76a28.22 28.22 0 014.195-2.319c.903-1.933 2.638-2.967 4.159-3.551a15.43 15.43 0 012.143-.631c.172-.039.304-.067.422-.093l.314-.069c.191-.044.265-.068.279-.072z" fill="url(#paint14_linear)"/><path fill-rule="evenodd" clip-rule="evenodd" d="M885.78 854.402c-1.512-1.406-3.05-3.276-4.141-4.469l.31-.929.93-.31c1.078 1.18 2.267 3.427 3.746 4.802.742.69 1.421 1.274 1.951 1.651a3.47 3.47 0 00.622.373c.184-.093.409-.169.629-.234.308-.09.684-.18 1.099-.266.832-.174 1.855-.34 2.872-.477a43.76 43.76 0 012.87-.299c.415-.027.79-.042 1.098-.038.279.002.584.019.804.092.408.136 1.833.44 3.257.632.706.095 1.384.159 1.913.164.266.002.473-.011.619-.036a.764.764 0 00.121-.028c.25-.255.336-.408.369-.49.03-.075.033-.124.033-.273l.62-.013v.013c0 .297.31.309.498.733-.12.3-.337.601-.68.943-.223.223-.54.3-.754.336a4.96 4.96 0 01-.837.053c-.604-.005-1.34-.077-2.068-.175-1.442-.195-2.961-.51-3.483-.684h-.001a.908.908 0 00-.107-.015 3.562 3.562 0 00-.317-.014 13.7 13.7 0 00-1.004.035c-.796.052-1.788.157-2.786.291-.997.134-1.989.296-2.784.462-.398.083-.739.165-1.002.242a3.89 3.89 0 00-.413.147.351.351 0 00-.033.018.894.894 0 01-.586.136 1.56 1.56 0 01-.443-.12 4.641 4.641 0 01-.846-.5c-.596-.425-1.323-1.052-2.076-1.753z" fill="url(#paint15_linear)"/><g style="mix-blend-mode:overlay" opacity=".81" filter="url(#filter6_f)"><path d="M-29 91l1098 789.296-109.399 57.237L-29 961V91z" fill="url(#paint16_linear)"/></g><g style="mix-blend-mode:overlay" opacity=".81" filter="url(#filter7_f)"><path d="M-21 302l989 615.868v230.662L-21 1172V302z" fill="url(#paint17_linear)"/></g></g><defs><linearGradient id="paint0_linear" x1="1348.17" y1="877.055" x2="1361.62" y2="1055.69" gradientUnits="userSpaceOnUse"><stop stop-color="#C88E78"/><stop offset=".49" stop-color="#B9725C"/><stop offset="1" stop-color="#7F443E"/></linearGradient><linearGradient id="paint1_linear" x1="1118" y1="778" x2="1118" y2="980" gradientUnits="userSpaceOnUse"><stop stop-color="#F9EEDE"/><stop offset="1" stop-color="#FFE8C7"/></linearGradient><linearGradient id="paint2_linear" x1="1129.5" y1="809" x2="1129.5" y2="1027" gradientUnits="userSpaceOnUse"><stop stop-color="#F3E1B2"/><stop offset="1" stop-color="#FDD8C4"/></linearGradient><linearGradient id="paint3_linear" x1="973" y1="866" x2="973" y2="1150" gradientUnits="userSpaceOnUse"><stop stop-color="#F3E1B2"/><stop offset="1" stop-color="#FDD8C4"/></linearGradient><linearGradient id="paint4_linear" x1="992.776" y1="851" x2="992.776" y2="1080.46" gradientUnits="userSpaceOnUse"><stop stop-color="#C88E78"/><stop offset=".49" stop-color="#B9725C"/><stop offset="1" stop-color="#7F443E"/></linearGradient><linearGradient id="paint5_linear" x1="589.288" y1="895.243" x2="589.288" y2="1032.34" gradientUnits="userSpaceOnUse"><stop stop-color="#C88E78"/><stop offset=".49" stop-color="#B9725C"/><stop offset="1" stop-color="#7F443E"/></linearGradient><linearGradient id="paint6_linear" x1="751" y1="887" x2="751" y2="1036" gradientUnits="userSpaceOnUse"><stop stop-color="#F3E1B2"/><stop offset="1" stop-color="#FDD8C4"/></linearGradient><linearGradient id="paint7_linear" x1="854.432" y1="921" x2="854.432" y2="1127.96" gradientUnits="userSpaceOnUse"><stop stop-color="#C88E78"/><stop offset=".49" stop-color="#B9725C"/><stop offset="1" stop-color="#7F443E"/></linearGradient><linearGradient id="paint8_linear" x1="650" y1="921" x2="650" y2="1102" gradientUnits="userSpaceOnUse"><stop stop-color="#F3E1B2"/><stop offset="1" stop-color="#FDD8C4"/></linearGradient><linearGradient id="paint9_linear" x1="888" y1="841" x2="888" y2="884" gradientUnits="userSpaceOnUse"><stop stop-color="#F3E1B2"/><stop offset="1" stop-color="#FDD8C4"/></linearGradient><linearGradient id="paint10_linear" x1="372.968" y1="910.293" x2="372.968" y2="1185.41" gradientUnits="userSpaceOnUse"><stop stop-color="#C88E78"/><stop offset=".49" stop-color="#B9725C"/><stop offset="1" stop-color="#7F443E"/></linearGradient><linearGradient id="paint11_linear" x1="1491.12" y1="919.412" x2="1519.43" y2="1176.29" gradientUnits="userSpaceOnUse"><stop stop-color="#C88E78"/><stop offset=".49" stop-color="#B9725C"/><stop offset="1" stop-color="#7F443E"/></linearGradient><linearGradient id="paint12_linear" x1="895.796" y1="823" x2="884.343" y2="835.395" gradientUnits="userSpaceOnUse"><stop stop-color="#480E00"/><stop offset="1" stop-color="#6A1F18"/></linearGradient><linearGradient id="paint13_linear" x1="893.777" y1="829.754" x2="902.386" y2="855.82" gradientUnits="userSpaceOnUse"><stop stop-color="#823327"/><stop offset=".531" stop-color="#50140E"/><stop offset="1" stop-color="#1B0303"/></linearGradient><linearGradient id="paint14_linear" x1="892.37" y1="830.12" x2="892.37" y2="844.36" gradientUnits="userSpaceOnUse"><stop stop-color="#C76D59"/><stop offset=".427" stop-color="#B3453E"/><stop offset="1" stop-color="#7A312B"/></linearGradient><linearGradient id="paint15_linear" x1="893.725" y1="849.623" x2="893.725" y2="856.161" gradientUnits="userSpaceOnUse"><stop stop-color="#C76D59"/><stop offset=".427" stop-color="#B3453E"/><stop offset="1" stop-color="#7A312B"/></linearGradient><linearGradient id="paint16_linear" x1="464.968" y1="413.816" x2="465.214" y2="955.849" gradientUnits="userSpaceOnUse"><stop stop-color="#E9AF9A" stop-opacity=".51"/><stop offset="1" stop-color="#E2A088" stop-opacity="0"/></linearGradient><linearGradient id="paint17_linear" x1="473.167" y1="629.967" x2="473.413" y2="1172" gradientUnits="userSpaceOnUse"><stop stop-color="#E9AF9A" stop-opacity=".51"/><stop offset="1" stop-color="#E2A088" stop-opacity="0"/></linearGradient><filter id="filter0_f" x="120" y="744" width="1996" height="270" filterUnits="userSpaceOnUse" color-interpolation-filters="sRGB"><feFlood flood-opacity="0" result="BackgroundImageFix"/><feBlend in="SourceGraphic" in2="BackgroundImageFix" result="shape"/><feGaussianBlur stdDeviation="17" result="effect1_foregroundBlur"/></filter><filter id="filter1_f" x="187" y="775" width="1885" height="286" filterUnits="userSpaceOnUse" color-interpolation-filters="sRGB"><feFlood flood-opacity="0" result="BackgroundImageFix"/><feBlend in="SourceGraphic" in2="BackgroundImageFix" result="shape"/><feGaussianBlur stdDeviation="17" result="effect1_foregroundBlur"/></filter><filter id="filter2_f" x="-132" y="832" width="2210" height="352" filterUnits="userSpaceOnUse" color-interpolation-filters="sRGB"><feFlood flood-opacity="0" result="BackgroundImageFix"/><feBlend in="SourceGraphic" in2="BackgroundImageFix" result="shape"/><feGaussianBlur stdDeviation="17" result="effect1_foregroundBlur"/></filter><filter id="filter3_f" x="164" y="868" width="1174" height="187" filterUnits="userSpaceOnUse" color-interpolation-filters="sRGB"><feFlood flood-opacity="0" result="BackgroundImageFix"/><feBlend in="SourceGraphic" in2="BackgroundImageFix" result="shape"/><feGaussianBlur stdDeviation="9.5" result="effect1_foregroundBlur"/></filter><filter id="filter4_f" x="-62" y="902" width="1424" height="219" filterUnits="userSpaceOnUse" color-interpolation-filters="sRGB"><feFlood flood-opacity="0" result="BackgroundImageFix"/><feBlend in="SourceGraphic" in2="BackgroundImageFix" result="shape"/><feGaussianBlur stdDeviation="9.5" result="effect1_foregroundBlur"/></filter><filter id="filter5_f" x="703" y="822" width="370" height="81" filterUnits="userSpaceOnUse" color-interpolation-filters="sRGB"><feFlood flood-opacity="0" result="BackgroundImageFix"/><feBlend in="SourceGraphic" in2="BackgroundImageFix" result="shape"/><feGaussianBlur stdDeviation="9.5" result="effect1_foregroundBlur"/></filter><filter id="filter6_f" x="-52" y="68" width="1144" height="916" filterUnits="userSpaceOnUse" color-interpolation-filters="sRGB"><feFlood flood-opacity="0" result="BackgroundImageFix"/><feBlend in="SourceGraphic" in2="BackgroundImageFix" result="shape"/><feGaussianBlur stdDeviation="11.5" result="effect1_foregroundBlur"/></filter><filter id="filter7_f" x="-44" y="279" width="1035" height="916" filterUnits="userSpaceOnUse" color-interpolation-filters="sRGB"><feFlood flood-opacity="0" result="BackgroundImageFix"/><feBlend in="SourceGraphic" in2="BackgroundImageFix" result="shape"/><feGaussianBlur stdDeviation="11.5" result="effect1_foregroundBlur"/></filter><clipPath id="clip0"><path fill="#fff" d="M0 0h1920v1080H0z"/></clipPath></defs></svg>