<svg width="224" height="68" fill="none" xmlns="http://www.w3.org/2000/svg"><g filter="url(#filter0_d)" fill="#fff"><path d="M190.982 33.934l-.324-11.99v-.648h3.565l.324 8.425h4.037v-8.1l3.416.324v15.553l-4.861 5.509-3.24-3.24 4.685-5.833h-7.602z"/><path fill-rule="evenodd" clip-rule="evenodd" d="M106.732 24.861v12.961h3.889V30.37l8.101 9.72 3.888-2.592-5.184-5.184 2.592-2.593v-8.748l-13.61-.325-2.268 2.269 2.592 1.944zm4.861-.324l-.324 3.24 3.564-.324 1.296-.648v-2.268h-4.536z"/><path d="M78.217 33.61V20.648h3.564v10.046l.972 2.916h3.565l.324-12.637h3.564v16.691h-9.073l-2.916-4.054zm-56.059-8.425v-5.184h9.397v14.905l-6.805 7.777-1.944-3.564 4.212-6.157v-7.777h-4.86z"/><path fill-rule="evenodd" clip-rule="evenodd" d="M62.015 20h-13.61v18.146h13.61V20zm-3.889 4.537h-5.832v9.073h5.832v-9.073z"/><path d="M139.136 38.47l-3.888.325V20.648h3.564l6.157 10.046v-9.721h3.564v16.202l-.972 1.62h-2.592l-6.157-8.75.324 8.426zm36.292-13.933h-7.452l-.324 2.916h6.804v3.889h-6.804v3.24h7.776v3.24h-11.989V20.648h11.989v3.889z"/></g><g filter="url(#filter1_f)" fill="#fff"><path d="M190.825 33.934l-.324-11.99v-.648h3.564l.324 8.425h4.037v-8.1l3.416.324v15.553l-4.86 5.509-3.241-3.24 4.685-5.833h-7.601z"/><path fill-rule="evenodd" clip-rule="evenodd" d="M106.574 24.861v12.961h3.889V30.37l8.101 9.72 3.888-2.592-5.184-5.184 2.592-2.593v-8.748l-13.61-.325-2.268 2.269 2.592 1.944zm4.861-.324l-.324 3.24 3.564-.324 1.296-.648v-2.268h-4.536z"/><path d="M78.059 33.61V20.648h3.564v10.046l.972 2.916h3.565l.324-12.637h3.564v16.691h-9.073L78.06 33.61zM22 25.185v-5.184h9.397v14.905l-6.805 7.777-1.944-3.564 4.213-6.157v-7.777H22z"/><path fill-rule="evenodd" clip-rule="evenodd" d="M61.857 20h-13.61v18.146h13.61V20zm-3.889 4.537h-5.832v9.073h5.832v-9.073z"/><path d="M138.978 38.47l-3.888.325V20.648h3.564l6.157 10.046v-9.721h3.564v16.202l-.972 1.62h-2.592l-6.157-8.75.324 8.426zm36.293-13.933h-7.453l-.324 2.916h6.805v3.889h-6.805v3.24h7.777v3.24h-11.99V20.648h11.99v3.889z"/></g><defs><filter id="filter0_d" x=".158" y="0" width="223.842" height="67.007" filterUnits="userSpaceOnUse" color-interpolation-filters="sRGB"><feFlood flood-opacity="0" result="BackgroundImageFix"/><feColorMatrix in="SourceAlpha" values="0 0 0 0 0 0 0 0 0 0 0 0 0 0 0 0 0 0 127 0"/><feOffset dy="2"/><feGaussianBlur stdDeviation="11"/><feColorMatrix values="0 0 0 0 0 0 0 0 0 0 0 0 0 0 0 0 0 0 0.08 0"/><feBlend in2="BackgroundImageFix" result="effect1_dropShadow"/><feBlend in="SourceGraphic" in2="effect1_dropShadow" result="shape"/></filter><filter id="filter1_f" x="15" y="13" width="193.842" height="37.007" filterUnits="userSpaceOnUse" color-interpolation-filters="sRGB"><feFlood flood-opacity="0" result="BackgroundImageFix"/><feBlend in="SourceGraphic" in2="BackgroundImageFix" result="shape"/><feGaussianBlur stdDeviation="3.5" result="effect1_foregroundBlur"/></filter></defs></svg>